<svg aria-hidden="true" style="position: absolute; width: 0; height: 0; overflow: hidden;" version="1.1"
    xmlns="http://www.w3.org/2000/svg" xmlns:xlink="http://www.w3.org/1999/xlink">
    <defs>
        <symbol id="icon-android" viewBox="0 0 28 32">
            <path fill="#fff" style="fill: var(--color1, #fff)"
                d="M10.639 7.196c-0.395 0-0.714-0.332-0.714-0.72s0.319-0.72 0.714-0.72c0.413 0 0.733 0.332 0.733 0.72s-0.319 0.72-0.733 0.72zM18.565 7.196c-0.413 0-0.733-0.332-0.733-0.72s0.319-0.72 0.733-0.72c0.394 0 0.714 0.332 0.714 0.72s-0.319 0.72-0.714 0.72zM3.313 10.592c-1.071 0-1.935 0.849-1.935 1.882v7.936c0 1.052 0.864 1.901 1.935 1.901s1.916-0.849 1.916-1.901v-7.936c0-1.033-0.864-1.882-1.916-1.882zM23.224 10.943h-17.243v12.292c0 1.126 0.92 2.030 2.066 2.030h1.39l0.019 4.189c0 1.052 0.864 1.901 1.916 1.901 1.071 0 1.935-0.849 1.935-1.901v-4.189h2.592v4.189c0 1.052 0.864 1.901 1.935 1.901s1.935-0.849 1.935-1.901v-4.189h1.409c1.127 0 2.047-0.904 2.047-2.030v-12.292zM18.866 3.468l1.334-2.418c0.075-0.129 0.038-0.295-0.094-0.369-0.132-0.056-0.301-0.019-0.376 0.111l-1.352 2.436c-1.146-0.498-2.423-0.775-3.776-0.775s-2.63 0.277-3.775 0.775l-1.352-2.436c-0.075-0.129-0.244-0.166-0.376-0.111-0.132 0.074-0.169 0.24-0.094 0.369l1.334 2.418c-2.648 1.329-4.433 3.876-4.433 6.81h17.375c0-2.934-1.785-5.481-4.414-6.81zM27.826 12.474c0-1.052-0.864-1.882-1.935-1.882-1.052 0-1.916 0.83-1.916 1.882v7.936c0 1.052 0.864 1.901 1.916 1.901 1.071 0 1.935-0.849 1.935-1.901v-7.936z">
            </path>
        </symbol>
        <symbol id="icon-apple" viewBox="0 0 27 32">
            <path fill="#fff" style="fill: var(--color1, #fff)"
                d="M26.371 22.532c-1.082-0.316-2.054-1.053-2.898-2.212s-1.266-2.475-1.266-3.914c0-1.334 0.404-2.545 1.192-3.633 0.44-0.614 1.137-1.299 2.091-2.071-0.624-0.737-1.266-1.334-1.908-1.755-1.137-0.755-2.44-1.141-3.907-1.141-0.899 0-1.963 0.21-3.173 0.597-1.211 0.404-2.091 0.597-2.623 0.597-0.422 0-1.266-0.175-2.531-0.527-1.284-0.351-2.348-0.527-3.247-0.527-2.109 0-3.834 0.843-5.209 2.527-1.376 1.703-2.073 3.879-2.073 6.565 0 2.878 0.917 5.81 2.696 8.829 1.816 3.019 3.632 4.546 5.521 4.546 0.605 0 1.412-0.193 2.421-0.597 0.991-0.386 1.871-0.58 2.605-0.58 0.752 0 1.687 0.176 2.77 0.562 1.1 0.369 1.944 0.562 2.568 0.562 1.559 0 3.137-1.141 4.714-3.44 1.064-1.527 1.798-3.002 2.256-4.388zM19.474 1.943c0-0.123-0.018-0.228-0.018-0.351-0.018-0.105-0.055-0.228-0.092-0.386-2.128 0.474-3.668 1.334-4.586 2.598s-1.394 2.773-1.431 4.511c0.862-0.070 1.486-0.175 1.908-0.298 0.66-0.21 1.321-0.632 1.981-1.264 0.77-0.737 1.339-1.545 1.706-2.422 0.348-0.86 0.532-1.667 0.532-2.387z">
            </path>
        </symbol>
        <symbol id="icon-fa-check" viewBox="0 0 41 32">
            <path fill="#fff" style="fill: var(--color1, #fff)"
                d="M39.253 6.793c0-0.636-0.244-1.272-0.682-1.729l-3.314-3.458c-0.439-0.458-1.048-0.712-1.657-0.712s-1.218 0.254-1.657 0.712l-15.985 16.708-7.164-7.503c-0.439-0.458-1.048-0.712-1.657-0.712s-1.218 0.255-1.657 0.712l-3.314 3.459c-0.439 0.458-0.682 1.093-0.682 1.729s0.244 1.271 0.682 1.729l12.135 12.665c0.439 0.458 1.048 0.712 1.657 0.712s1.218-0.255 1.657-0.712l20.957-21.871c0.439-0.458 0.682-1.093 0.682-1.729z">
            </path>
        </symbol>
        <symbol id="icon-youtube_fff" viewBox="0 0 32 32">
            <path fill="none" stroke-linecap="butt" stroke-miterlimit="4" stroke-width="2.0800"
                d="M30.96 16c0 8.262-6.698 14.96-14.96 14.96s-14.96-6.698-14.96-14.96c0-8.262 6.698-14.96 14.96-14.96s14.96 6.698 14.96 14.96z">
            </path>



            <path
                d="M18.565 15.573l-3.594-1.677c-0.314-0.146-0.571 0.018-0.571 0.365v3.158c0 0.347 0.258 0.51 0.571 0.365l3.592-1.677c0.315-0.147 0.315-0.387 0.002-0.534zM16 22.080c-7.862 0-8-0.709-8-6.24s0.138-6.24 8-6.24c7.862 0 8 0.709 8 6.24s-0.138 6.24-8 6.24z">
            </path>
        </symbol>
        <symbol id="icon-insta_fff" viewBox="0 0 32 32">
            <path
                d="M24.926 7.074c0.32 0.32 0.499 0.753 0.499 1.205s-0.18 0.886-0.499 1.205c-0.32 0.32-0.753 0.499-1.205 0.499s-0.885-0.18-1.205-0.499c-0.076-0.081-0.146-0.168-0.211-0.259-0.063-0.094-0.115-0.194-0.156-0.3-0.042-0.101-0.074-0.206-0.095-0.313-0.010-0.111-0.010-0.223 0-0.334 0.003-0.451 0.181-0.883 0.497-1.205 0.080-0.078 0.167-0.148 0.259-0.211 0.185-0.124 0.394-0.21 0.613-0.252 0.27-0.049 0.547-0.033 0.809 0.048s0.5 0.223 0.696 0.415zM22.584 16c0 1.302-0.386 2.575-1.11 3.658s-1.752 1.927-2.955 2.425c-1.203 0.498-2.527 0.629-3.804 0.375s-2.45-0.881-3.371-1.802c-0.921-0.921-1.548-2.094-1.802-3.371s-0.124-2.601 0.375-3.804c0.498-1.203 1.342-2.231 2.425-2.955s2.356-1.11 3.658-1.11c1.746 0.002 3.419 0.696 4.653 1.93s1.929 2.908 1.93 4.653zM20.541 16c0-0.898-0.266-1.776-0.765-2.523s-1.208-1.329-2.038-1.673c-0.83-0.344-1.743-0.434-2.624-0.258s-1.69 0.608-2.325 1.243c-0.635 0.635-1.068 1.444-1.243 2.325s-0.085 1.794 0.258 2.624c0.344 0.83 0.926 1.539 1.673 2.038s1.625 0.765 2.523 0.765c1.204 0 2.36-0.478 3.211-1.33s1.33-2.007 1.33-3.211zM32 16c0 3.164-0.938 6.258-2.696 8.889s-4.257 4.682-7.181 5.893c-2.924 1.211-6.141 1.528-9.244 0.91s-5.955-2.141-8.192-4.379c-2.238-2.238-3.761-5.089-4.379-8.192s-0.3-6.321 0.91-9.244c1.211-2.924 3.262-5.422 5.893-7.181s5.725-2.696 8.889-2.696c4.242 0.004 8.31 1.69 11.31 4.69s4.687 7.067 4.69 11.31zM29.957 16c0-2.761-0.819-5.459-2.352-7.754s-3.713-4.084-6.264-5.141-5.357-1.333-8.064-0.794c-2.707 0.539-5.194 1.868-7.146 3.82s-3.281 4.439-3.82 7.146c-0.539 2.707-0.262 5.514 0.794 8.064s2.845 4.73 5.141 6.264c2.295 1.534 4.994 2.352 7.754 2.352 3.7-0.005 7.247-1.478 9.863-4.094s4.089-6.163 4.094-9.863z">
            </path>
        </symbol>
        <symbol id="icon-facebook_fff" viewBox="0 0 32 32">
            <path
                d="M13.913 11.099v2.203h-1.613v2.693h1.613v8.005h3.315v-8.005h2.224c0 0 0.21-1.291 0.31-2.704h-2.522v-1.84c0-0.277 0.362-0.646 0.72-0.646h1.805v-2.805h-2.456c-3.478 0-3.397 2.696-3.397 3.099z">
            </path>
            <path fill="none" stroke-linejoin="miter" stroke-linecap="butt" stroke-miterlimit="4" stroke-width="2.0800"
                d="M30.96 16c0 8.262-6.698 14.96-14.96 14.96s-14.96-6.698-14.96-14.96c0-8.262 6.698-14.96 14.96-14.96s14.96 6.698 14.96 14.96z">
            </path>
        </symbol>
        <symbol id="icon-mail_fff" viewBox="0 0 32 32">
            <path
                d="M15.996 0c-8.766 0-15.939 7.132-15.996 15.9-0.028 4.274 1.614 8.306 4.614 11.342 3 3.044 7.010 4.729 11.283 4.757 0 0 0.1 0 0.107 0 8.766 0 15.939-7.132 15.996-15.9 0.050-8.818-7.081-16.043-16.003-16.1zM28.566 21.774l-6.349-5.774 6.356-5.774c0.825 1.785 1.28 3.769 1.266 5.86-0.014 2.027-0.469 3.954-1.273 5.689zM16.082 2.155c4.785 0.028 8.993 2.496 11.46 6.215l-11.546 10.496-11.531-10.482c2.481-3.748 6.754-6.229 11.617-6.229zM3.427 10.226l6.349 5.774-6.363 5.781c-0.839-1.813-1.273-3.812-1.258-5.867 0.014-2.027 0.469-3.954 1.273-5.689zM15.996 29.845h-0.092c-3.697-0.021-7.159-1.486-9.761-4.117-0.64-0.647-1.209-1.351-1.706-2.098l6.868-6.236 3.995 3.627c0.199 0.178 0.448 0.27 0.697 0.27s0.498-0.092 0.697-0.27l3.995-3.627 6.853 6.229c-2.488 3.74-6.74 6.222-11.546 6.222z">
            </path>
        </symbol>
        <symbol id="icon-logo" viewBox="0 0 31 32">
            <path fill="#fff" style="fill: var(--color1, #fff)"
                d="M15.755 0.001l-0.113-0.001c-0.537 0-1.070 0.028-1.593 0.081-0.243 0.025-0.484 0.057-0.723 0.092-0.015 0.002-0.032 0.003-0.047 0.006-6.431 0.979-11.585 5.89-12.932 12.194-0.003 0.013-0.007 0.026-0.009 0.038-0.043 0.206-0.081 0.414-0.116 0.622-0.009 0.053-0.020 0.105-0.028 0.159-0.028 0.175-0.050 0.352-0.071 0.53-0.011 0.087-0.024 0.173-0.033 0.261-0.016 0.153-0.027 0.307-0.038 0.461-0.009 0.113-0.019 0.225-0.026 0.337-0.008 0.14-0.010 0.282-0.014 0.423-0.003 0.11-0.010 0.219-0.011 0.329 0 0.018 0.001 0.035 0.001 0.054s-0.001 0.038-0.001 0.057c0 0.049 0.005 0.097 0.005 0.147 0.002 0.277 0.012 0.553 0.029 0.827 0.006 0.093 0.012 0.187 0.019 0.279 0.024 0.303 0.055 0.605 0.097 0.903 0.003 0.026 0.006 0.053 0.009 0.080 0.047 0.329 0.108 0.654 0.175 0.977 0.015 0.072 0.032 0.143 0.048 0.214 0.060 0.271 0.128 0.54 0.204 0.806 0.015 0.056 0.030 0.111 0.046 0.166 0.096 0.323 0.199 0.642 0.313 0.955 0.005 0.015 0.012 0.029 0.016 0.044 0.11 0.297 0.23 0.59 0.357 0.878 0.021 0.048 0.042 0.096 0.064 0.143 0.276 0.611 0.59 1.201 0.939 1.769 0.007 0.012 0.013 0.023 0.019 0.035-0.001 0.017 0.004 0.035 0.003 0.053 0.019 0.029 0.039 0.057 0.056 0.088 0.016 0.010 0.034 0.019 0.050 0.029 0.52 0.814 1.113 1.578 1.77 2.28 0.004 0.005 0.009 0.009 0.013 0.014 0.653 0.698 1.37 1.337 2.141 1.906 0.012 0.009 0.022 0.016 0.034 0.025 0.237 0.173 0.48 0.341 0.727 0.502 0.029 0.018 0.056 0.036 0.084 0.054 0.529 0.339 1.079 0.65 1.648 0.925 0.011 0.006 0.021 0.010 0.032 0.015 0.259 0.125 0.522 0.24 0.789 0.351 0.060 0.025 0.12 0.048 0.18 0.072 0.233 0.093 0.469 0.18 0.706 0.262 0.057 0.020 0.114 0.041 0.172 0.060 0.58 0.192 1.175 0.35 1.782 0.473 0.079 0.016 0.157 0.030 0.236 0.044 0.226 0.042 0.452 0.080 0.682 0.112 0.092 0.013 0.184 0.026 0.277 0.037 0.245 0.030 0.491 0.054 0.739 0.072 0.065 0.005 0.129 0.012 0.194 0.016 0.29 0.018 0.583 0.030 0.877 0.032l0.113 0.001c8.564 0 15.581-6.968 15.642-15.534 0.060-8.628-6.907-15.695-15.533-15.757zM14.269 30.222c-0.216-0.020-0.431-0.046-0.644-0.076-0.029-0.004-0.057-0.008-0.085-0.012-0.214-0.031-0.426-0.067-0.637-0.106-0.026-0.005-0.053-0.010-0.080-0.015-0.211-0.042-0.421-0.088-0.629-0.139-0.025-0.006-0.050-0.012-0.076-0.018-0.209-0.052-0.415-0.108-0.621-0.17-0.022-0.007-0.046-0.013-0.069-0.020-0.206-0.063-0.411-0.129-0.614-0.2-0.021-0.008-0.042-0.014-0.063-0.022-0.204-0.073-0.405-0.149-0.605-0.231-0.019-0.008-0.037-0.015-0.057-0.023-0.201-0.082-0.4-0.17-0.596-0.261-0.016-0.008-0.034-0.015-0.050-0.023-0.198-0.093-0.393-0.19-0.585-0.291-0.014-0.008-0.029-0.015-0.043-0.022-0.194-0.103-0.385-0.21-0.574-0.321-0.012-0.008-0.025-0.014-0.038-0.022-0.189-0.112-0.376-0.228-0.56-0.349-0.012-0.008-0.023-0.014-0.034-0.021-0.184-0.122-0.366-0.248-0.545-0.378-0.009-0.007-0.019-0.013-0.028-0.020-0.179-0.131-0.355-0.266-0.529-0.404-0.009-0.007-0.017-0.014-0.026-0.020-0.173-0.139-0.343-0.283-0.509-0.429-0.009-0.008-0.016-0.014-0.025-0.021-0.166-0.147-0.329-0.297-0.487-0.452-0.009-0.008-0.016-0.015-0.025-0.024-0.158-0.154-0.312-0.312-0.464-0.473-0.009-0.009-0.016-0.018-0.026-0.027-0.149-0.16-0.295-0.324-0.438-0.491-0.005-0.006-0.010-0.012-0.014-0.017 2.038 0.971 4.234 1.685 6.543 2.096 0.949 1.088 2.035 2.096 3.258 3.004-0.009-0.001-0.018-0.001-0.027-0.002zM3.136 23.25c-0.287-0.469-0.548-0.956-0.781-1.458-0.014-0.029-0.026-0.059-0.040-0.088-0.102-0.221-0.196-0.446-0.287-0.675-0.018-0.044-0.035-0.090-0.053-0.135-0.087-0.226-0.169-0.454-0.244-0.686-0.010-0.032-0.021-0.064-0.032-0.097-0.351-1.096-0.577-2.247-0.66-3.438-0.001-0.005-0.001-0.010-0.001-0.014 1.84 1.339 3.89 2.434 6.095 3.229 0.559 2.186 1.548 4.251 2.925 6.117-2.47-0.561-4.79-1.488-6.896-2.712-0.009-0.015-0.018-0.029-0.027-0.043zM1.288 12.767c0.034-0.168 0.072-0.334 0.111-0.5 0.014-0.059 0.027-0.119 0.042-0.177 0.036-0.143 0.076-0.285 0.115-0.427 0.024-0.082 0.047-0.164 0.072-0.245 0.037-0.124 0.076-0.246 0.116-0.369 0.034-0.102 0.069-0.203 0.105-0.304 0.037-0.104 0.075-0.207 0.114-0.31 0.013-0.035 0.028-0.068 0.041-0.102 1.469 1.065 3.082 1.963 4.805 2.663-0.136 0.869-0.213 1.752-0.213 2.647 0 1.043 0.101 2.070 0.285 3.078-2.14-0.837-4.117-1.97-5.874-3.343 0.015-0.875 0.109-1.73 0.272-2.561 0.003-0.017 0.006-0.034 0.010-0.051zM2.455 9.295c0.141-0.291 0.295-0.577 0.454-0.857 0.064-0.113 0.128-0.225 0.195-0.335 0.156-0.259 0.321-0.513 0.492-0.761 0.083-0.121 0.171-0.24 0.258-0.358 0.172-0.234 0.35-0.465 0.536-0.688 0.098-0.117 0.199-0.23 0.3-0.344 0.149-0.168 0.301-0.332 0.457-0.492 0.072-0.074 0.142-0.149 0.215-0.221 1.106 0.711 2.298 1.31 3.557 1.782-0.899 1.561-1.544 3.233-1.924 4.974-1.648-0.687-3.186-1.563-4.586-2.6 0.016-0.034 0.030-0.069 0.047-0.102zM6.282 4.403c0.189-0.157 0.38-0.311 0.578-0.459 0.113-0.086 0.229-0.167 0.345-0.25 0.169-0.12 0.339-0.236 0.514-0.349 0.102-0.065 0.203-0.132 0.306-0.195 0.247-0.151 0.497-0.295 0.754-0.432 0.088-0.047 0.179-0.092 0.268-0.137 0.232-0.117 0.466-0.229 0.704-0.335 0.061-0.027 0.122-0.057 0.184-0.083 0.298-0.127 0.602-0.242 0.909-0.35 0.065-0.023 0.131-0.045 0.198-0.067 0.663-0.22 1.346-0.396 2.048-0.52 0.032-0.006 0.064-0.012 0.097-0.017 0.366-0.062 0.736-0.113 1.109-0.147-1.969 1.462-3.598 3.182-4.842 5.085-1.176-0.425-2.288-0.969-3.325-1.614 0.051-0.044 0.101-0.088 0.152-0.132zM16.163 11.64c1.984 0.256 3.522 1.952 3.522 4.004s-1.539 3.748-3.522 4.004v-8.008zM11.557 26.294c-1.519-1.812-2.624-3.85-3.277-6.024 2.17 0.664 4.475 1.039 6.865 1.085v5.264c-1.221-0.024-2.419-0.134-3.588-0.326zM15.145 27.619v1.98c-0.918-0.661-1.761-1.38-2.525-2.148 0.83 0.096 1.672 0.152 2.525 0.168zM7.981 19.122c-0.251-1.132-0.386-2.294-0.386-3.477 0-0.771 0.059-1.533 0.167-2.284 2.306 0.82 4.791 1.289 7.384 1.343v5.653c-2.508-0.051-4.916-0.483-7.165-1.236zM7.935 12.362c0.366-1.758 1.027-3.439 1.952-5.005 1.66 0.521 3.426 0.821 5.258 0.868v5.479c-2.536-0.054-4.963-0.525-7.21-1.343zM10.442 6.479c1.214-1.797 2.796-3.418 4.702-4.791v5.53c-1.633-0.044-3.212-0.295-4.702-0.739zM16.163 20.657c2.536-0.26 4.521-2.409 4.521-5.013s-1.985-4.752-4.521-5.013v-4.311c4.915 0.272 8.835 4.342 8.835 9.324s-3.919 9.052-8.835 9.324v-4.312zM16.163 30.277v-4.312c5.466-0.273 9.833-4.788 9.833-10.32 0-5.533-4.367-10.049-9.833-10.322v-4.311c7.882 0.277 14.182 6.799 14.127 14.736-0.055 7.845-6.345 14.255-14.127 14.529z">
            </path>
        </symbol>
        <symbol id="icon-arrow-r" viewBox="0 0 32 32">
            <path stroke-linejoin="miter" stroke-linecap="butt" stroke-miterlimit="4" stroke-width="4.5714"
                d="M14.499 3.070l12.93 12.93-12.93 12.93"></path>
        </symbol>
        <symbol id="icon-arrow-l" viewBox="0 0 32 32">
            <path stroke-linejoin="miter" stroke-linecap="butt" stroke-miterlimit="4" stroke-width="4.5714"
                d="M17.501 3.070l-12.93 12.93 12.93 12.93"></path>
        </symbol>
    </defs>
</svg>